#!OML:ASF H:\Dans Jumps\Project 1\Capture day 1\Session 1\subject.ASF
:FULLY-SPECIFIED
:DEGREES
306
root 0.306001 18.0871 -6.57315 19.2912 -0.340652 -1.8013
lowerback -3.75019 0.569174 -1.25615
upperback -5.19485 0.799958 0.834541
thorax -3.275 0.463252 1.56903
lowerneck -13.5651 -0.0285857 -2.57057
upperneck 18.2667 0.404783 0.632588
head 7.87545 0.0772182 0.678619
rclavicle 1.58469e-014 5.06901e-015
rhumerus -40.8999 16.4952 -68.5728
rradius 56.7436
rwrist 23.8843
rhand -11.5157 -23.2589
rfingers 7.12502
rthumb 14.5237 -52.7305
lclavicle 1.58469e-014 5.06901e-015
lhumerus -38.3189 -28.6831 71.5719
lradius 34.7215
lwrist 24.3523
lhand -19.7138 -1.53178
lfingers 7.12502
lthumb 6.61606 28.3449
rfemur -3.12692 -8.12593 16.7022
rtibia 23.4148
rfoot 9.88029 -5.52227
rtoes -16.3903
lfemur -7.50515 10.9991 -12.6947
ltibia 27.1326
lfoot 13.9475 -7.4809
ltoes -31.5844
307
root 0.316131 18.3725 -6.2067 18.6604 -0.221084 -1.86163
lowerback -5.57173 0.492742 -0.902427
upperback -5.08514 0.700056 0.718068
thorax -2.13289 0.39104 1.26905
lowerneck -12.5102 0.0461456 -2.587
upperneck 19.2741 0.450364 0.799994
head 8.019 0.105666 0.74366
rclavicle 5.87036e-015 -6.95746e-016
rhumerus -42.2549 17.1967 -68.511
rradius 57.5298
rwrist 23.5669
rhand -11.3056 -22.9636
rfingers 7.12502
rthumb 14.7261 -52.4205
lclavicle 5.87036e-015 -6.95746e-016
lhumerus -40.4354 -30.3141 71.6748
lradius 35.2022
lwrist 25.2736
lhand -19.6453 -1.48372
lfingers 7.12502
lthumb 6.6822 28.3908
rfemur -1.30965 -8.01357 16.4652
rtibia 22.7134
rfoot 15.1345 -6.84915
rtoes -8.72491
lfemur -5.36347 9.64202 -12.3405
ltibia 25.0149
lfoot 19.6269 -6.8468
ltoes -27.9043
308
root 0.325434 18.6649 -5.85838 18.1113 -0.0738957 -1.97855
lowerback -7.24094 0.41236 -0.557632
upperback -4.94439 0.582646 0.652571
thorax -1.05415 0.31568 1.01979
lowerneck -11.466 0.11471 -2.63157
upperneck 20.0779 0.488018 0.982217
head 8.09608 0.131136 0.816636
rclavicle -9.5603e-015 -1.27222e-014
rhumerus -43.1928 17.5452 -68.3539
rradius 58.0001
rwrist 23.3952
rhand -11.1502 -22.7976
rfingers 7.12502
rthumb 14.8758 -52.2435
lclavicle -9.5603e-015 -1.27222e-014
lhumerus -42.3299 -31.6755 71.8561
lradius 35.5459
lwrist 26.3703
lhand -19.4741 -1.43591
lfingers 7.12502
lthumb 6.8475 28.4334
rfemur 0.0547856 -8.08238 16.3995
rtibia 22.8936
rfoot 18.9543 -7.65708
rtoes -2.36889
lfemur -3.90153 8.62421 -12.0517
ltibia 24.1283
lfoot 23.6072 -5.96702
ltoes -24.715
309
root 0.332401 18.9609 -5.53282 17.66 0.0989491 -2.14433
lowerback -8.71169 0.320232 -0.263487
upperback -4.77527 0.440947 0.64978
thorax -0.064123 0.234149 0.854559
lowerneck -10.4645 0.172141 -2.72869
upperneck 20.6387 0.515139 1.18305
head 8.09925 0.15079 0.902242
rclavicle 8.65956e-015 4.96962e-016
rhumerus -43.6614 17.5385 -68.1119
rradius 58.1102
rwrist 23.4656
rhand -11.0588 -22.7434
rfingers 7.12502
rthumb 14.9639 -52.1828
lclavicle 8.65956e-015 4.96962e-016
lhumerus -43.901 -32.6886 72.0746
lradius 35.7222
lwrist 27.4973
lhand -19.1306 -1.31162
lfingers 7.12502
lthumb 7.17907 28.5466
rfemur 0.94505 -8.14799 16.5288
rtibia 23.9575
rfoot 21.513 -7.64873
rtoes 2.43195
lfemur -3.18654 8.11806 -11.7923
ltibia 24.6082
lfoot 25.9264 -5.29116
ltoes -22.2614
310
root 0.335716 19.2543 -5.23489 17.2901 0.288349 -2.32755
lowerback -9.92102 0.202605 -0.0773498
upperback -4.57886 0.264832 0.710969
thorax 0.805073 0.140834 0.804989
lowerneck -9.48812 0.236802 -2.77254
upperneck 20.9257 0.555511 1.31373
head 8.01526 0.175385 0.954933
rclavicle 3.00041e-015 -2.88238e-015
rhumerus -43.6535 17.2203 -67.8262
rradius 57.8538
rwrist 23.7747
rhand -11.0444 -22.7845
rfingers 7.12502
rthumb 14.9777 -52.2229
lclavicle 3.00041e-015 -2.88238e-015
lhumerus -45.0859 -33.2679 72.2717
lradius 35.7139
lwrist 28.4475
lhand -18.6069 -1.05578
lfingers 7.12502
lthumb 7.68463 28.7846
rfemur 1.33569 -8.05578 16.841
rtibia 25.9239
rfoot 23.1508 -7.01248
rtoes 6.15262
lfemur -3.17241 8.09746 -11.5609
ltibia 26.3669
lfoot 27.0685 -5.07161
ltoes -20.4161
311
root 0.33404 19.5397 -4.96743 16.9581 0.472763 -2.47822
lowerback -10.7917 0.0502845 -0.0643186
upperback -4.35736 0.0544174 0.821233
thorax 1.51304 0.0342495 0.89239
lowerneck -8.6018 0.309094 -2.77873
upperneck 21.029 0.612403 1.39375
head 7.8864 0.206909 0.984623
rclavicle 3.59055e-015 -2.68359e-015
rhumerus -43.193 16.6411 -67.5564
rradius 57.2246
rwrist 24.2502
rhand -11.1201 -22.8973
rfingers 7.12502
rthumb 14.9048 -52.3411
lclavicle 3.59055e-015 -2.68359e-015
lhumerus -45.8792 -33.3869 72.4054
lradius 35.5259
lwrist 29.0448
lhand -17.9909 -0.721814
lfingers 7.12502
lthumb 8.27915 29.096
rfemur 1.22586 -7.78577 17.2719
rtibia 28.7918
rfoot 24.3161 -6.03358
rtoes 9.50163
lfemur -3.72354 8.38506 -11.3975
ltibia 29.161
lfoot 27.6247 -5.38281
ltoes -18.9307
312
root 0.327324 19.8159 -4.72915 16.611 0.634017 -2.56128
lowerback -11.2741 -0.13587 -0.240826
upperback -4.10239 -0.181154 0.954129
thorax 2.0454 -0.0834777 1.10146
lowerneck -7.85828 0.388918 -2.72305
upperneck 21.0477 0.685711 1.4169
head 7.75582 0.246312 0.986073
rclavicle 1.16786e-015 -7.25564e-015
rhumerus -42.3459 15.8529 -67.3618
rradius 56.2654
rwrist 24.7761
rhand -11.3066 -23.0691
rfingers 7.12502
rthumb 14.7251 -52.5261
lclavicle 1.16786e-015 -7.25564e-015
lhumerus -46.3197 -33.0759 72.449
lradius 35.1928
lwrist 29.2012
lhand -17.4308 -0.389167
lfingers 7.12502
lthumb 8.81967 29.4065
rfemur 0.662649 -7.46615 17.7284
rtibia 32.4928
rfoot 25.3987 -4.98042
rtoes 12.864
lfemur -4.6751 8.80581 -11.335
ltibia 32.7158
lfoot 28.0073 -6.11305
ltoes -17.5835
313
root 0.316535 20.0865 -4.51437 16.1908 0.759607 -2.53476
lowerback -11.3284 -0.342493 -0.602716
upperback -3.80487 -0.421551 1.06801
thorax 2.39246 -0.204109 1.39216
lowerneck -7.31663 0.469281 -2.6051
upperneck 21.0848 0.76359 1.40642
head 7.66859 0.289801 0.967044
rclavicle -5.69642e-015 -1.23246e-014
rhumerus -41.2057 14.8908 -67.2909
rradius 55.0298
rwrist 25.2657
rhand -11.5968 -23.2919
rfingers 7.12502
rthumb 14.4456 -52.7691
lclavicle -5.69642e-015 -1.23246e-014
lhumerus -46.4767 -32.4393 72.3995
lradius 34.7768
lwrist 28.9545
lhand -17.0288 -0.087459
lfingers 7.12502
lthumb 9.20752 29.6915
rfemur -0.240906 -7.23525 18.0982
rtibia 36.8769
rfoot 26.5161 -4.1829
rtoes 16.6817
lfemur -5.86941 9.25606 -11.4133
ltibia 36.7881
lfoot 28.5144 -7.00425
ltoes -16.0547
314
root 0.303764 20.3541 -4.31683 15.6653 0.854618 -2.39496
lowerback -10.9508 -0.548226 -1.09262
upperback -3.46196 -0.646889 1.13173
thorax 2.55445 -0.318619 1.70584
lowerneck -6.98548 0.540645 -2.44926
upperneck 21.1937 0.829165 1.40038
head 7.64374 0.330703 0.943398
rclavicle 4.6528e-015 -5.86415e-015
rhumerus -39.8986 13.7867 -67.367
rradius 53.6103
rwrist 25.6849
rhand -11.9747 -23.5512
rfingers 7.12502
rthumb 14.0814 -53.0541
lclavicle 4.6528e-015 -5.86415e-015
lhumerus -46.4316 -31.6139 72.2851
lradius 34.3326
lwrist 28.4473
lhand -16.8911 0.0523184
lfingers 7.12502
lthumb 9.34041 29.8254
rfemur -1.36396 -7.19709 18.3204
rtibia 41.7438
rfoot 27.5281 -3.79629
rtoes 20.6766
lfemur -7.18623 9.66243 -11.632
ltibia 41.1774
lfoot 29.1622 -7.67761
ltoes -14.1222
